<mxfile host="app.diagrams.net" modified="2022-07-13T08:04:23.808Z" agent="5.0 (Macintosh; Intel Mac OS X 10_15_7) AppleWebKit/537.36 (KHTML, like Gecko) Chrome/103.0.0.0 Safari/537.36" etag="Il6YEmkaBiE92L0ATmnl" version="20.1.1" type="github">
  <diagram id="61y1FBE1oSBBMkwLM_4o" name="Page-1">
    <mxGraphModel dx="1298" dy="670" grid="1" gridSize="10" guides="1" tooltips="1" connect="1" arrows="1" fold="1" page="1" pageScale="1" pageWidth="827" pageHeight="1169" math="0" shadow="0">
      <root>
        <mxCell id="0" />
        <mxCell id="1" parent="0" />
        <mxCell id="aNosJgGE5Rzp08-AvwGX-3" style="edgeStyle=orthogonalEdgeStyle;rounded=0;orthogonalLoop=1;jettySize=auto;html=1;exitX=0.5;exitY=1;exitDx=0;exitDy=0;entryX=1;entryY=0.5;entryDx=0;entryDy=0;fontSize=15;" edge="1" parent="1" source="aNosJgGE5Rzp08-AvwGX-1" target="aNosJgGE5Rzp08-AvwGX-2">
          <mxGeometry relative="1" as="geometry" />
        </mxCell>
        <mxCell id="aNosJgGE5Rzp08-AvwGX-8" value="&lt;pre&gt;send message&amp;nbsp;&lt;/pre&gt;" style="edgeLabel;html=1;align=center;verticalAlign=middle;resizable=0;points=[];fontSize=15;" vertex="1" connectable="0" parent="aNosJgGE5Rzp08-AvwGX-3">
          <mxGeometry x="-0.5136" y="4" relative="1" as="geometry">
            <mxPoint x="66" as="offset" />
          </mxGeometry>
        </mxCell>
        <mxCell id="aNosJgGE5Rzp08-AvwGX-1" value="&lt;pre&gt;&lt;font style=&quot;font-size: 15px;&quot;&gt;Ship Position &lt;/font&gt;&lt;/pre&gt;&lt;pre&gt;&lt;font style=&quot;font-size: 15px;&quot;&gt;Event Listen&lt;/font&gt;&lt;/pre&gt;" style="shape=ext;double=1;whiteSpace=wrap;html=1;aspect=fixed;" vertex="1" parent="1">
          <mxGeometry x="500" y="70" width="140" height="140" as="geometry" />
        </mxCell>
        <mxCell id="aNosJgGE5Rzp08-AvwGX-10" style="edgeStyle=orthogonalEdgeStyle;rounded=0;orthogonalLoop=1;jettySize=auto;html=1;exitX=0;exitY=0.5;exitDx=0;exitDy=0;entryX=1;entryY=0.5;entryDx=0;entryDy=0;fontSize=15;" edge="1" parent="1" source="aNosJgGE5Rzp08-AvwGX-2" target="aNosJgGE5Rzp08-AvwGX-9">
          <mxGeometry relative="1" as="geometry" />
        </mxCell>
        <mxCell id="aNosJgGE5Rzp08-AvwGX-11" value="&lt;pre&gt;Get Data by bookingIDs&lt;/pre&gt;" style="edgeLabel;html=1;align=center;verticalAlign=middle;resizable=0;points=[];fontSize=15;" vertex="1" connectable="0" parent="aNosJgGE5Rzp08-AvwGX-10">
          <mxGeometry x="0.0667" y="-4" relative="1" as="geometry">
            <mxPoint x="11" y="-56" as="offset" />
          </mxGeometry>
        </mxCell>
        <mxCell id="aNosJgGE5Rzp08-AvwGX-13" value="&lt;pre&gt;&lt;font style=&quot;font-size: 15px;&quot;&gt;Send Info&amp;nbsp;&lt;/font&gt;&lt;/pre&gt;" style="edgeStyle=orthogonalEdgeStyle;rounded=0;orthogonalLoop=1;jettySize=auto;html=1;fontSize=16;" edge="1" parent="1" source="aNosJgGE5Rzp08-AvwGX-2" target="aNosJgGE5Rzp08-AvwGX-12">
          <mxGeometry y="70" relative="1" as="geometry">
            <mxPoint as="offset" />
          </mxGeometry>
        </mxCell>
        <mxCell id="aNosJgGE5Rzp08-AvwGX-2" value="&lt;pre&gt;Backend &lt;/pre&gt;&lt;pre&gt;Service&lt;/pre&gt;" style="shape=ext;double=1;whiteSpace=wrap;html=1;aspect=fixed;fontSize=15;" vertex="1" parent="1">
          <mxGeometry x="350" y="250" width="80" height="80" as="geometry" />
        </mxCell>
        <mxCell id="aNosJgGE5Rzp08-AvwGX-9" value="&lt;pre&gt;Gemini &lt;/pre&gt;&lt;pre&gt;Sevice&lt;/pre&gt;" style="shape=ext;double=1;whiteSpace=wrap;html=1;aspect=fixed;fontSize=15;" vertex="1" parent="1">
          <mxGeometry x="80" y="250" width="80" height="80" as="geometry" />
        </mxCell>
        <mxCell id="aNosJgGE5Rzp08-AvwGX-15" style="edgeStyle=orthogonalEdgeStyle;rounded=0;orthogonalLoop=1;jettySize=auto;html=1;exitX=0;exitY=0;exitDx=90;exitDy=21.60708831721044;exitPerimeter=0;fontSize=15;" edge="1" parent="1" source="aNosJgGE5Rzp08-AvwGX-12">
          <mxGeometry relative="1" as="geometry">
            <mxPoint x="590" y="432" as="targetPoint" />
          </mxGeometry>
        </mxCell>
        <mxCell id="aNosJgGE5Rzp08-AvwGX-12" value="&lt;font style=&quot;font-size: 16px;&quot;&gt;DataBase&lt;/font&gt;" style="html=1;whiteSpace=wrap;shape=isoCube2;backgroundOutline=1;isoAngle=15;fontSize=15;" vertex="1" parent="1">
          <mxGeometry x="345" y="410" width="90" height="100" as="geometry" />
        </mxCell>
        <mxCell id="aNosJgGE5Rzp08-AvwGX-14" value="&lt;pre&gt;Map Webapp&lt;/pre&gt;&lt;pre&gt;Show Information&lt;/pre&gt;" style="shape=ext;double=1;rounded=1;whiteSpace=wrap;html=1;fontSize=15;" vertex="1" parent="1">
          <mxGeometry x="590" y="390" width="190" height="80" as="geometry" />
        </mxCell>
      </root>
    </mxGraphModel>
  </diagram>
</mxfile>
